<?xml version="1.0" encoding="UTF-8"?>
<svg id="Layer_2" data-name="Layer 2" xmlns="http://www.w3.org/2000/svg" viewBox="0 0 79 80">
  <defs>
    <style>
      .cls-1 {
        fill: gray;
      }

      .cls-2 {
        fill: #49687e;
      }

      .cls-3 {
        fill: #f2f2f2;
      }

      .cls-4 {
        fill: #8b0000;
      }
    </style>
  </defs>
  <g id="Layer_1-2" data-name="Layer 1">
    <g>
      <path class="cls-2" d="M39.5,40H0C0,18.06,17.83,0,39.5,0s39.5,18.06,39.5,40H39.5Z"/>
      <path class="cls-1" d="M39.5,40H0c0,21.94,17.83,40,39.5,40s39.5-18.06,39.5-40H39.5Z"/>
      <g>
        <circle class="cls-3" cx="39" cy="40" r="32"/>
        <path class="cls-4" d="M36.93,23.18v30.74c-3.15,0-7.93,.12-14.35,.35v-.52c3.36-.39,5.7-1.23,7.01-2.54,1.31-1.28,1.97-3.61,1.97-6.97v-13.04c0-2.53-.68-4.38-2.03-5.57-1.35-1.17-3.67-1.92-6.95-2.27v-.52c5.33,.19,10.11,.31,14.35,.35Zm4.92,30.74V23.18c5.42,0,10.22-.12,14.42-.35v.52c-2.58,.21-4.72,.84-6.42,1.87-1.75,1.07-2.62,3.28-2.62,6.62v13.91c0,2.99,.92,5.01,2.75,6.04,1.83,1.03,3.93,1.68,6.29,1.95v.52c-4.11-.23-8.91-.35-14.42-.35Z"/>
      </g>
    </g>
  </g>
</svg>