<?xml version="1.0" encoding="UTF-8"?>
<svg id="Layer_1" data-name="Layer 1" xmlns="http://www.w3.org/2000/svg" xmlns:xlink="http://www.w3.org/1999/xlink" viewBox="0 0 65 68">
  <defs>
    <style>
      .cls-1 {
        fill: #8b0000;
      }

      .cls-1, .cls-2 {
        fill-rule: evenodd;
      }

      .cls-3 {
        clip-path: url(#clippath-1);
      }

      .cls-4 {
        clip-path: url(#clippath);
      }

      .cls-5 {
        fill: none;
      }

      .cls-2 {
        fill: #ff8c00;
      }
    </style>
    <clipPath id="clippath">
      <rect class="cls-5" x="-.78" y="-.25" width="65" height="68"/>
    </clipPath>
    <clipPath id="clippath-1">
      <rect class="cls-5" x="-.78" y="-.25" width="65" height="68"/>
    </clipPath>
  </defs>
  <g id="surface2">
    <g class="cls-4">
      <g class="cls-3">
        <path class="cls-1" d="M31.72,3.21c-4.06,.02-7.84,.81-11.35,2.39-3.53,1.58-6.62,3.77-9.28,6.57-2.68,2.79-4.77,6.02-6.28,9.71-1.51,3.67-2.27,7.63-2.29,11.87,.02,4.24,.78,8.2,2.29,11.87,1.51,3.69,3.6,6.92,6.28,9.71,2.66,2.8,5.76,4.99,9.28,6.57,3.51,1.58,7.29,2.37,11.35,2.39,4.06-.02,7.84-.82,11.35-2.39,3.52-1.58,6.62-3.76,9.28-6.57,2.68-2.79,4.77-6.02,6.28-9.71,1.51-3.67,2.27-7.63,2.28-11.87-.02-4.25-.78-8.2-2.28-11.87-1.51-3.69-3.6-6.92-6.28-9.71-2.66-2.8-5.76-4.99-9.28-6.57-3.51-1.58-7.29-2.37-11.35-2.39m0,64.54c-4.52-.04-8.73-.93-12.64-2.68-3.91-1.75-7.35-4.18-10.33-7.29-2.97-3.11-5.3-6.72-6.97-10.81C.11,42.89-.75,38.48-.78,33.75c.04-4.73,.89-9.14,2.56-13.23,1.67-4.09,3.99-7.69,6.97-10.81,2.98-3.11,6.42-5.54,10.33-7.29C22.99,.68,27.2-.21,31.72-.25c4.52,.04,8.73,.93,12.64,2.68,3.91,1.75,7.35,4.18,10.33,7.29,2.97,3.11,5.3,6.71,6.97,10.81,1.67,4.09,2.52,8.5,2.56,13.23-.04,4.72-.89,9.13-2.56,13.22-1.67,4.09-3.99,7.69-6.97,10.81-2.98,3.11-6.42,5.54-10.33,7.29-3.91,1.75-8.12,2.64-12.64,2.68"/>
        <path class="cls-2" d="M55.68,33.75c-.02,3.48-.64,6.73-1.87,9.77-1.25,3.02-2.97,5.67-5.15,7.95-2.18,2.28-4.72,4.08-7.6,5.39-2.9,1.29-6.01,1.94-9.34,1.96-3.32-.02-6.44-.67-9.34-1.96-2.88-1.31-5.42-3.1-7.6-5.39-2.18-2.29-3.9-4.94-5.15-7.95-1.23-3.03-1.85-6.29-1.87-9.77,.02-3.48,.64-6.73,1.87-9.77,1.25-3.01,2.97-5.67,5.15-7.95,2.19-2.29,4.72-4.08,7.6-5.39,2.9-1.29,6.01-1.94,9.34-1.96,3.32,.02,6.44,.67,9.34,1.96,2.88,1.31,5.42,3.1,7.6,5.39,2.19,2.28,3.9,4.94,5.15,7.95,1.23,3.04,1.85,6.29,1.87,9.77"/>
        <path class="cls-1" d="M31.36,42h-1.85V22.96h1.85v19.04Zm-3.55,1.81h5.24V21.16h-5.24v22.65Zm2.41,3.94l-3.18-3.13V20.35h6.79l2.99,3.32v24.07h-6.6Z"/>
      </g>
    </g>
  </g>
</svg>