<?xml version="1.0" encoding="UTF-8"?>
<svg id="Layer_2" data-name="Layer 2" xmlns="http://www.w3.org/2000/svg" viewBox="0 0 45 43">
  <defs>
    <style>
      .cls-1 {
        fill: gray;
      }

      .cls-2 {
        fill: #49687e;
      }

      .cls-3 {
        fill: #f2f2f2;
      }

      .cls-4 {
        fill: #8b0000;
      }
    </style>
  </defs>
  <g id="Layer_1-2" data-name="Layer 1">
    <g>
      <path class="cls-2" d="M22.5,21.5H0C0,9.71,10.16,0,22.5,0s22.5,9.71,22.5,21.5H22.5Z"/>
      <path class="cls-1" d="M22.5,21.5H0c0,11.79,10.16,21.5,22.5,21.5s22.5-9.71,22.5-21.5H22.5Z"/>
      <g>
        <ellipse class="cls-3" cx="22.22" cy="21.5" rx="18.23" ry="17.2"/>
        <path class="cls-4" d="M21.04,12.46V28.98c-1.79,0-4.52,.06-8.17,.19v-.28c1.92-.21,3.25-.66,3.99-1.36,.75-.69,1.12-1.94,1.12-3.75v-7.01c0-1.36-.39-2.36-1.16-2.99-.77-.63-2.09-1.03-3.96-1.22v-.28c3.04,.1,5.76,.17,8.17,.19Zm2.8,16.52V12.46c3.09,0,5.82-.06,8.21-.19v.28c-1.47,.11-2.69,.45-3.66,1-1,.58-1.49,1.76-1.49,3.56v7.48c0,1.61,.52,2.69,1.57,3.24,1.04,.55,2.24,.9,3.58,1.05v.28c-2.34-.13-5.08-.19-8.21-.19Z"/>
      </g>
    </g>
  </g>
</svg>