<?xml version="1.0" encoding="UTF-8"?>
<svg id="Layer_1" data-name="Layer 1" xmlns="http://www.w3.org/2000/svg" xmlns:xlink="http://www.w3.org/1999/xlink" viewBox="0 0 1015 1010">
  <defs>
    <style>
      .cls-1 {
        fill: none;
      }

      .cls-2 {
        clip-path: url(#clippath);
      }

      .cls-3 {
        fill: #f7931e;
      }

      .cls-4, .cls-5 {
        fill: #8b0000;
      }

      .cls-6 {
        font-family: AngieOpenPro-Black, 'Angie Open Pro';
        font-size: 126.09px;
        font-weight: 800;
      }

      .cls-7 {
        letter-spacing: 0em;
      }

      .cls-8 {
        clip-path: url(#clippath-1);
      }

      .cls-9 {
        letter-spacing: 0em;
      }

      .cls-5, .cls-10 {
        fill-rule: evenodd;
      }

      .cls-10 {
        fill: #ff8c00;
      }
    </style>
    <clipPath id="clippath">
      <rect class="cls-1" x="118" width="722" height="707"/>
    </clipPath>
    <clipPath id="clippath-1">
      <rect class="cls-1" x="118" width="722" height="707"/>
    </clipPath>
  </defs>
  <g id="surface2">
    <g class="cls-2">
      <g class="cls-8">
        <path class="cls-5" d="M479,35.95c-45.05,.19-87.07,8.47-126.03,24.85-39.17,16.39-73.52,39.16-103.11,68.3-29.78,28.98-53.01,62.63-69.75,100.96-16.73,38.15-25.18,79.3-25.4,123.44,.22,44.12,8.67,85.26,25.4,123.41,16.73,38.36,39.97,71.99,69.75,100.96,29.59,29.16,63.93,51.91,103.11,68.3,38.96,16.39,80.98,24.67,126.03,24.88,45.08-.21,87.09-8.49,126.06-24.88,39.15-16.39,73.52-39.14,103.11-68.3,29.76-28.98,53.01-62.61,69.75-100.96,16.73-38.15,25.19-79.3,25.38-123.41-.19-44.14-8.65-85.28-25.38-123.44-16.73-38.33-39.99-71.99-69.75-100.96-29.59-29.14-63.96-51.91-103.11-68.3-38.96-16.38-80.98-24.67-126.06-24.85m0,671.05c-50.17-.4-96.97-9.69-140.42-27.87-43.42-18.17-81.67-43.44-114.72-75.79-33.03-32.37-58.84-69.82-77.39-112.34-18.56-42.55-28.06-88.38-28.46-137.5,.4-49.15,9.9-94.98,28.46-137.52,18.55-42.53,44.36-79.97,77.39-112.34,33.06-32.35,71.3-57.6,114.72-75.79C382.03,9.66,428.84,.39,479,0c50.19,.4,96.99,9.66,140.44,27.85,43.43,18.19,81.67,43.44,114.72,75.79,33.03,32.37,58.82,69.81,77.39,112.34,18.57,42.55,28.04,88.38,28.44,137.52-.4,49.12-9.87,94.95-28.44,137.5-18.58,42.52-44.36,79.97-77.39,112.34-33.05,32.35-71.29,57.62-114.72,75.79-43.45,18.18-90.25,27.48-140.44,27.87"/>
        <path class="cls-10" d="M745.16,353.5c-.19,36.13-7.12,70-20.79,101.55-13.86,31.37-32.94,58.91-57.22,82.69-24.26,23.75-52.41,42.44-84.42,56.01-32.24,13.39-66.8,20.17-103.73,20.38-36.9-.22-71.49-6.99-103.7-20.38-32.03-13.57-60.16-32.26-84.44-56.01-24.25-23.78-43.34-51.32-57.2-82.69-13.68-31.55-20.6-65.42-20.82-101.55,.22-36.16,7.14-70,20.82-101.57,13.86-31.34,32.94-58.91,57.2-82.67,24.28-23.78,52.41-42.46,84.44-56.03,32.21-13.39,66.8-20.17,103.7-20.36,36.93,.19,71.49,6.97,103.73,20.36,32.01,13.58,60.16,32.25,84.42,56.03,24.28,23.76,43.36,51.32,57.22,82.67,13.67,31.57,20.6,65.42,20.79,101.57"/>
        <path class="cls-5" d="M475.06,439.29h-20.56V241.33h20.56v197.96Zm-39.4,18.79h58.25V222.54h-58.25v235.54Zm26.73,40.93l-35.29-32.55V214.15h75.38l33.24,34.56v250.3h-73.33Z"/>
      </g>
    </g>
  </g>
  <text class="cls-6" transform="translate(0 976.96) scale(.84 1)"><tspan class="cls-4" x="0" y="0">IGNITE</tspan><tspan class="cls-7" x="463.12" y="0"> </tspan><tspan class="cls-3" x="498.42" y="0">RIDER</tspan><tspan class="cls-9" x="923.33" y="0" xml:space="preserve"> INC</tspan></text>
</svg>